<svg width="20" height="10" viewBox="0 0 20 10" fill="none" xmlns="http://www.w3.org/2000/svg">
<path fill-rule="evenodd" clip-rule="evenodd" d="M15.8395 0.58058L19.8169 4.55806C20.061 4.80214 20.061 5.19787 19.8169 5.44194L15.8395 9.41942C15.5954 9.6635 15.1997 9.6635 14.9556 9.41942C14.7115 9.17535 14.7115 8.77962 14.9556 8.53554L17.8661 5.625H0.625C0.279822 5.625 0 5.34518 0 5C0 4.65482 0.279822 4.375 0.625 4.375H17.8661L14.9556 1.46446C14.7115 1.22039 14.7115 0.824658 14.9556 0.58058C15.1997 0.336502 15.5954 0.336502 15.8395 0.58058Z" fill="white"/>
<path fill-rule="evenodd" clip-rule="evenodd" d="M0 1.02252C0 0.677344 0.279822 0.397522 0.625 0.397522H12.5C12.8452 0.397522 13.125 0.677344 13.125 1.02252C13.125 1.3677 12.8452 1.64752 12.5 1.64752H0.625C0.279822 1.64752 0 1.3677 0 1.02252Z" fill="white"/>
<path fill-rule="evenodd" clip-rule="evenodd" d="M0 9.14752C0 8.80234 0.279822 8.52252 0.625 8.52252H12.5C12.8452 8.52252 13.125 8.80234 13.125 9.14752C13.125 9.4927 12.8452 9.77252 12.5 9.77252H0.625C0.279822 9.77252 0 9.4927 0 9.14752Z" fill="white"/>
</svg>
